/* XPM */
static char *result[] = {
/* columns rows colors chars-per-pixel */
"32 32 14 1 ",
"  c gray13",
". c gray30",
"X c #CC5814",
"o c #FF6E19",
"O c #DEA610",
"+ c #FFEF15",
"@ c #B38E59",
"# c #FF9E66",
"$ c #FFFC54",
"% c gray60",
"& c #E6CAA1",
"* c #E6E6E6",
"= c white",
"- c None",
/* pixels */
"--------------------------------",
"--------------------------------",
"--------------------------------",
"--------------     -------------",
"------------  +===+  -----------",
"----------- ++O+++O++ ----------",
"---------- +$+$OOO$+$+ ---------",
"---------  ++$+$$$+$++ ---------",
"--------- O++$$+++$$++O --------",
"--------- O++$+++++$++O --------",
"--------- O++$+++$$$++O --------",
"--------- O++$+++$=$++O --------",
"--------- O++$$++$$$++O --------",
"---------  O++$$$$$$+O ---------",
"---------  OO+$++$++OO ---------",
"-------- &  OOO+++OOO  ---------",
"-------- @- O++OOO++O  ---------",
"-------- X*  O+++++O # ---------",
"-------- *Xoo OOOOO # ----------",
"-------- oooo       o ----------",
"---------    *oooo*  -----------",
"---------- o oo##oo ------------",
"---------- Xoo#oo#o ------------",
"---------- XXoooooo ------------",
"---------- XXX###### -----------",
"---------- %%Xooo### -----------",
"---------    % XXo## -----------",
"--------- .   - XXo# -----------",
"----------    -- %** -----------",
"----------------      ----------",
"----------------    . ----------",
"-----------------    -----------"
};
