/* XPM */
static char *result[] = {
/* columns rows colors chars-per-pixel */
"32 32 19 1 ",
"  c gray13",
". c #4D0808",
"X c gray30",
"o c #800D0D",
"O c #B31212",
"+ c #E61717",
"@ c #80653F",
"# c #CC5814",
"$ c #FF6E19",
"% c #DEA610",
"& c #FFEF15",
"* c #B38E59",
"= c #FF9E66",
"- c #E6B773",
"; c #FFFC54",
": c gray60",
"> c #E6CAA1",
", c #E6E6E6",
"< c None",
/* pixels */
"<<<<<<<<<<<<<<<<<<<<<<<<<<<<<<<<",
"<<<<<<<<<<<<<<<<<<<<<<<<<<<<<<<<",
"<<<<<<<<<<<<<<<<<<<<<<<<<<<<<<<<",
"<<<<<<<<<<<<       <<<<<<<<<<<<<",
"<<<<<<<<<<< ;;&&;&&  <<<<<<<<<<<",
"<<<<<<<<<< ;&&&;&&%&; <<<<<<<<<<",
"<<<<<<<<<< ;;;&;&&&%, <<<<<<<<<<",
"<<<<<<<<< ;;,;&;&&&%, <<<<<<<<<<",
"<<<<<<<<< ;;;;&;&&&%%% <<<<<<<<<",
"<<<<<<<<< ;&&&&%%%%   <<<<<<<<<<",
"<<<<<<<<< &&%%%    -* <<<<<<<<<<",
"<<<<<<<<  %%   **-o-- <<<<<<<<<<",
"<<<<<<< %%  +o. --o-- <<<<<<<<<<",
"<<<<<<     oO @*--->>> <<<<<<<<<",
"<<<<<<<<<< .o *->>>>>- <<<<<<<<<",
"<<<<<<<<<<<..*-->>>>- <<<<<<<<<<",
"<<<<<<<<<<<<< *-->-- <<<<<<<<<<<",
"<<<<<<<<<<<<<     * <<<<<<<<<<<<",
"<<<<<<<<<<<< # #$$ <<<<<<<<<<<<<",
"<<<<<<<<<<< ##$ $=, <<<<<<<<<<<<",
"<<<<<<<<<<< #$= $=,  <<<<<<<<<<<",
"<<<<<<<<<<< ##$,   >> <<<<<<<<<<",
"<<<<<<<<<<< ::,==$$>>> <<<<<<<<<",
"<<<<<<<<<<<  ##$$$$->> <<<<<<<<<",
"<<<<<<<<<<< # #####-- <<<<<<<<<<",
"<<<<<<<<<<< ##       <<<<<<<<<<<",
"<<<<<<<<<<<< #$$$=#$ <<<<<<<<<<<",
"<<<<<<<<<<<< :,,,:,, <<<<<<<<<<<",
"<<<<<<<<<<<<<       <<<<<<<<<<<<",
"<<<<<<<<<<<<         <<<<<<<<<<<",
"<<<<<<<<<<<<     X  X <<<<<<<<<<",
"<<<<<<<<<<<<          <<<<<<<<<<"
};
