/* XPM */
static char *result[] = {
/* columns rows colors chars-per-pixel */
"32 32 181 2 ",
"   c #494534",
".  c #504B38",
"X  c #6A6448",
"o  c #696247",
"O  c #4E4937",
"+  c #615E52",
"@  c #615E53",
"#  c #58554B",
"$  c #34312B",
"%  c #544F3B",
"&  c #58533D",
"*  c #3A3831",
"=  c #5D5A4F",
"-  c #989381",
";  c #9E9987",
":  c #5D5A50",
">  c #55503B",
",  c #646155",
"<  c #A19C89",
"1  c #736F61",
"2  c #726E60",
"3  c #807C6C",
"4  c #636055",
"5  c #656256",
"6  c #837E6F",
"7  c #787465",
"8  c #4E4A37",
"9  c #56513B",
"0  c #605D51",
"q  c #7B7768",
"w  c #767163",
"e  c #58544A",
"r  c #56513C",
"t  c #5A574C",
"y  c #777364",
"u  c #747062",
"i  c #535047",
"p  c #545147",
"a  c #757062",
"s  c #747061",
"d  c #4F4C43",
"f  c #4B483F",
"g  c #4B4940",
"h  c #45433A",
"j  c #6E6A5D",
"k  c #6E6A5C",
"l  c #6D6A5C",
"z  c #6D695C",
"x  c #47453C",
"c  c #4D4937",
"v  c #423F37",
"b  c #6C685B",
"n  c #6F6B5E",
"m  c #6F6C5E",
"M  c #706C5E",
"N  c #6F6B5D",
"B  c #6E6B5D",
"V  c #676457",
"C  c #676357",
"Z  c #676356",
"A  c #666356",
"S  c #444139",
"D  c #3E3C34",
"F  c #636054",
"G  c #413F37",
"H  c #57513C",
"J  c #3C3A33",
"K  c #605E51",
"L  c #3D3B33",
"P  c #3B3932",
"I  c #59574B",
"U  c #58554A",
"Y  c #57554A",
"T  c #525046",
"R  c #4D4837",
"E  c #504E44",
"W  c #565348",
"Q  c #403E36",
"!  c #3F3D35",
"~  c #302E28",
"^  c #57523D",
"/  c #302E29",
"(  c #39362B",
")  c #3A362B",
"_  c #3B382C",
"`  c #5F5941",
"'  c #676146",
"]  c #403D2F",
"[  c #39362A",
"{  c #625C42",
"}  c #474333",
"|  c #403C2E",
" . c #403D2E",
".. c #423E30",
"X. c #444031",
"o. c #433F30",
"O. c #5B553E",
"+. c #3D3B34",
"@. c #696559",
"#. c #686458",
"$. c #676458",
"%. c #676358",
"&. c #666357",
"*. c #666257",
"=. c #656156",
"-. c #646156",
";. c #646055",
":. c #635F54",
">. c #625F54",
",. c #625E53",
"<. c #5E5B50",
"1. c #3A3731",
"2. c #4B4635",
"3. c #484433",
"4. c #9C9885",
"5. c #898575",
"6. c #888474",
"7. c #888373",
"8. c #878373",
"9. c #888473",
"0. c #898474",
"q. c #8A8675",
"w. c #8B8676",
"e. c #8B8776",
"r. c #8C8877",
"t. c #8D8878",
"y. c #8E8978",
"u. c #8E8A79",
"i. c #8F8B7A",
"p. c #908C7B",
"a. c #928D7C",
"s. c #948F7D",
"d. c #999583",
"f. c #484434",
"g. c #827D6E",
"h. c #716D5F",
"j. c #767264",
"k. c #494434",
"l. c #4E4B42",
"z. c #4F4D43",
"x. c #49463D",
"c. c #47443B",
"v. c #706D5F",
"b. c #716D60",
"n. c #716E60",
"m. c #434038",
"M. c #686557",
"N. c #686558",
"B. c #696558",
"V. c #686457",
"C. c #434139",
"Z. c #403D36",
"A. c #494535",
"S. c #4A4535",
"D. c #38362F",
"F. c #5B594D",
"G. c #5F5C50",
"H. c #514F45",
"J. c #5A584C",
"K. c #5E5B4F",
"L. c #5F5D51",
"P. c #615F52",
"I. c #625F53",
"U. c #626053",
"Y. c #636053",
"T. c #625F52",
"R. c #555348",
"E. c #35332D",
"W. c #4D4B41",
"Q. c #4E4C42",
"!. c #504E43",
"~. c #514E44",
"^. c #4C4837",
"/. c #2D2B25",
"(. c #35322C",
"). c #37352E",
"_. c #37342E",
"`. c #2F2D27",
"'. c #666045",
"]. c #534E3A",
"[. c white",
/* pixels */
"                            . X o O                             ",
"+ + + + + + + + + + + + @ # $ % & * = @ + + + + + + + + + + + + ",
"- - - - - - - - - - - - - ; : O > , < - - - - - - - - - - - - - ",
"1 1 1 1 1 1 1 1 1 1 1 1 2 3 4 O > 5 6 2 1 1 1 1 1 1 1 1 1 1 1 1 ",
"2 2 2 2 2 2 2 2 2 2 2 2 2 7 = 8 9 0 q 2 2 2 2 2 2 2 2 2 2 2 2 2 ",
"1 1 1 1 1 1 1 1 1 1 1 1 2 w e 8 r t y 2 1 1 1 1 1 1 1 1 1 1 1 1 ",
"1 1 1 1 1 1 1 1 1 1 1 1 2 u i 8 r p a 2 1 1 1 1 1 1 1 1 1 1 1 1 ",
"1 1 1 1 1 1 1 1 1 1 1 1 1 s d O r f 1 1 1 1 1 1 1 1 1 1 1 1 1 1 ",
"1 1 1 1 1 1 1 1 1 1 1 1 1 1 g O r h 2 1 1 1 1 1 1 1 1 1 1 1 1 1 ",
"j j j j j j j j j j k l z l x c r v b n m M M M m n n N N N B B ",
"V V V V C Z Z A A A A A A V S c r D F V V V V V V V V V V V V V ",
"V V V V V V V V V V V V V A G c H J K V A A A A A A A V V V V V ",
"A A A A A A A A A A A A A 0 L c H P I A A A A A A A A A A A A A ",
"U U U U U U U U U U U U Y T P R r P E W U U U U U U U U U U U U ",
"Q Q Q Q Q Q Q Q Q Q Q Q Q ! ~ R ^ / ! Q Q Q Q Q Q Q Q Q Q Q Q Q ",
"( ) ( ( ( ( ( ( ( ( ( ( ( ( _ ` ' ] [ ( ( ( ( ( ( ( ( ( ( ( ( ( ",
"{ } |  . . . . . . . .| | | ..} } X.| | | | | | | | | | | | o.O.",
"O +.5 @.#.$.$.%.C &.&.&.*.*.5 =.-.-.-., , ;.4 F :.>.>.,.@ <.1.2.",
"3., 4.5.6.7.8.8.8.7.7.7.9.6.6.0.0.5.q.w.e.r.t.y.u.i.p.a.s.d.0 f.",
"f.:.g.h.2 2 2 2 2 2 2 2 2 2 2 2 2 2 2 2 2 2 2 2 2 2 2 2 2 j.#   ",
"k.t 7 2 1 1 1 1 1 1 1 1 1 1 1 1 1 1 1 1 1 1 1 1 1 1 1 2 2 s l.  ",
"  z.u 2 1 1 1 1 1 1 1 1 1 1 1 1 1 1 1 1 1 1 1 1 1 1 1 1 1 1 f   ",
"  x.1 1 1 1 1 1 1 1 1 1 1 1 1 1 1 1 1 1 1 1 1 1 1 1 1 1 1 1 f   ",
"  c.M M v.h.h.h.b.b.n.2 2 2 2 2 2 n.b.h.h.h.h.h.h.h.v.M M M x.  ",
"  m.V V V M.N.N.N.N.N.B.B.B.B.B.B.N.N.N.N.N.N.N.M.V.V V V V C.  ",
"  Z.A V A A A A A A A A A A A A A A A A A A A A A A A A V 5 Q A.",
"A.P F V V V V V V V V V V V V V V V V V V V V V V V V V V F +.S.",
"S.D.F.V V V V V V V V V V V V V V V V V V V V V V V V V V G.P S.",
"S.D.H.J.K.L.K P.I.I.U.Y.Y.F F F F F Y.Y.Y.U.I.I.I.T.+ K L.R.P S.",
"S.E.W.Q.Q.z.z.z.!.E E E E E E ~.~.E E E E E E E !.z.z.z.z.Q.* S.",
"^./.(.).).).).).).).).).).).).).).).).).).).).).).).).).)._.`.^.",
"'.> ].].].].].].].].].].].].].].].].].].].].].].].].].].].].% '."
};
