/* XPM */
static char *c9b36a198fd84a74e6b2c6a5d1977752ERQ8gaTN7U69XcFZ[] = {
/* columns rows colors chars-per-pixel */
"32 32 6 1 ",
"  c #482D1E",
". c #5F3A27",
"X c #744730",
"o c #865337",
"O c #77CEE3",
"+ c #99D9EA",
/* pixels */
"................................",
".XXXXXXXooooooo..XXXXXXoooooooo.",
".Xooooooooooooo..Xooooooooooooo.",
".Xooooooooooooo..oooooooooooooo.",
".oooXXXXXXXXXXo..oXXXXXXXXXXooo.",
".oooXO+++++++Xo..oX++++++++Xooo.",
".oooXO+++++++Xo..oX++++++++Xooo.",
".oooXO+++++++Xo..oX++++++++XooX.",
".oooXOO++++++Xo..oX++++++++XooX.",
".oooXOO++++++Xo..oXO+++++++XooX.",
".oooX+OO+++++Xo..oXO+++++++XooX.",
".oooX+OO+++++Xo..oXOOO+++++XooX.",
".oooX+OOO++++Xo..oX+OO+++++XooX.",
".oooX++OOO+++Xo..oX+OO+++++XooX.",
".oooX++OOO+++Xo..oX+OOO++++Xooo.",
".oooX+++OO+++Xo..oX++OO++++Xooo.",
".oooX++++OO++Xo..oX+++O++++Xooo.",
".oooX++++OO++X  .oX+++OO+++Xooo.",
".oooX+++++OO+X    X+++OO+++Xooo.",
".oooX+++++OO+Xo..oX++++OO++Xooo.",
".oooX+++++OOOXo..oX++++OO++Xooo.",
".oooX++++++OOXo..oX++++OO++Xooo.",
".oooX+++++++OXo..oX+++++O++Xooo.",
".oooX+++++++OXo..oX+++++O++Xooo.",
".oooX++++++++Xo..oX++++++++Xooo.",
".oooX++++++++Xo..oX++++++++Xooo.",
".oooX++++++++Xo..oX++++++++Xooo.",
".XooXXXXXXXXXXo..oXXXXXXXXXXooo.",
".Xooooooooooooo..Xooooooooooooo.",
".Xooooooooooooo..Xooooooooooooo.",
".XXoooooooooooo..XXoooooooooooo.",
"................................"
};
