/* XPM */
static char *result[] = {
/* columns rows colors chars-per-pixel */
"32 32 81 1 ",
"  c #301807",
". c gray18",
"X c #4E1009",
"o c #54331A",
"O c #783418",
"+ c #1E601E",
"@ c #277B22",
"# c #403F4E",
"$ c #4E4C66",
"% c #64636C",
"& c #8F2424",
"* c #802C23",
"= c #B43232",
"- c #AF581F",
"; c #9B4426",
": c #A74F2B",
"> c #CC7930",
", c #D47131",
"< c #845F44",
"1 c #D66E57",
"2 c #528E35",
"3 c #6FC12B",
"4 c #9CD127",
"5 c #D4E926",
"6 c #AE8A5A",
"7 c #90867E",
"8 c #CD8340",
"9 c #DD8D46",
"0 c #D89953",
"q c #E08B47",
"w c #E49954",
"e c #EA8E79",
"r c #CCA777",
"t c #E8A361",
"y c #E9A763",
"u c #EAAC67",
"i c #E6AF6C",
"p c #E9B775",
"a c #E9BD7D",
"s c #F1BE7F",
"d c #9FEA62",
"f c #BAB0A8",
"g c #F1BF80",
"h c #F2C081",
"j c #F1C182",
"k c #F2C082",
"l c #F2C183",
"z c #F3C285",
"x c #F3C487",
"c c #F3C588",
"v c #F3CA8E",
"b c #F5CB91",
"n c #F6D096",
"m c #F7D29A",
"M c #E7CFA3",
"N c #F6D1A4",
"B c #F8D7A0",
"V c #F9D8A2",
"C c #F9DBA6",
"Z c #F9DCA6",
"A c #FADEA9",
"S c #F9DDBB",
"D c #FAE0AB",
"F c #FBE1AF",
"G c #FBE3B1",
"H c #FCE6B4",
"J c #FDE9B9",
"K c #FDEABB",
"L c #FDEBBB",
"P c #FDEBBC",
"I c #FDECBC",
"U c #FDECBD",
"Y c #FBE4C3",
"T c #FAECD0",
"R c #FCF3DF",
"E c #FFF5DD",
"W c #FFF6DD",
"Q c #F6F2F0",
"! c #FFFBF3",
"~ c white",
"^ c None",
/* pixels */
"^^^^^^^^^^^^^^^^^^^^^^^^^^^^^^^^",
"^^^^^^^^^^^^^^^^$$^^^^^^^^^^^^^^",
"^^^^^^^^^^^^^^^$Q$^^^^^^^^^^^^^^",
"^^^^^^^^^^^^XXX$7$^^^^^^^^^^^^^^",
"^^^^^^^^^^XOtUv%f%<<<^^^^^^^^^^^",
"^^^^^^^^XOvUgUU%f%OOX6<<^^^^^^^^",
"^^^^^^oXvsUJmPD#f%sDvOXM<o^^^^^^",
"^^^^^o:UIjLLxUU-7#lUUgvOXMo^^^^^",
"^^^^oM*vUkUFNUUip8bPGBUUvXMo^^^^",
"^^^<M~*uutULgUWVUIcUHCEUU,XM<^^^",
"^^^6~~&*uquvsUUhUZYKDlUUv,*~6^^^",
"^^ M~M=1*:uuqvAzULnPUsv99,*~M ^^",
"^^6~~@3=e1*:quywvUsUv,999*2~~6^^",
"^ M~~@452=e1*:uquvq99,9:*=+~~M ^",
"^ ~~M*@@32&=e1*;uvq99:*1e=TM~~ ^",
"^ ~~r:>@5332&=11*::**11=&2+r~~ ^",
"^ ~~r*u9@54++2&&=1ee1=&254.r~~ ^",
"^ ~~rM*9>@+vU+232&&&&2332+Mr~~ ^",
"^ ~~rTM*:9uuvU+5d3+23345+*TM~~ ^",
"^ ~~MT!TM*:uquv+++3334++*MTS~~ ^",
"^ T~~S!!!TM*;uu9v+555+9*MTST~T ^",
"^^ ~~MT!!!!TM*:9u9+++9*M!TM~~ ^^",
"^^ T~TST!a!!!TM*:999u*MTTM!~T ^^",
"^^^<~~TM!!!!!a!TM*:**MT!MT~~<^^^",
"^^^ T~!TM!!!!!!0!!!!!!!MT!~T ^^^",
"^^^^<T!~TMSR!!!!!!!!RSMT~!T<^^^^",
"^^^^^ T!!!~SSSSSSSSSS~~~~T ^^^^^",
"^^^^^^ <T~~~~~~~~~~~~~~T< ^^^^^^",
"^^^^^^^^  <T~~~~~~~~T<  ^^^^^^^^",
"^^^^^^^^^^^          ^^^^^^^^^^^",
"^^^^^^^^^^^^^^^^^^^^^^^^^^^^^^^^",
"^^^^^^^^^^^^^^^^^^^^^^^^^^^^^^^^"
};
